# xmcd
#
# Track frame offsets:
#  150
#  2340
#  18123
#  39836
#  66699
#  82149
#  92653
#  107444
#  133954
#  154392
#  170231
#  186754
#  216772
#
# Disc length: 3255 seconds
#
# Revision: 1
# Processed by: cddbd v1.5.1PL0 Copyright (c) Steve Scherf et al.
# Submitted via: Collectorz.com_Music_Collector 6.9
#
DISCID=ad0cb50d
DTITLE=Down Home Super Trio - R.J. Mischo - Richard Innes - Frank Goldwasser - In the House: Live at Lucerne 6
DYEAR=2004
DGENRE=Blues
TTITLE0=Introduction By Fritz Jakober
TTITLE1=If You Dig Me Let Me Know
TTITLE2=Sister Taught Me Guitar
TTITLE3=Candle Is Burning Low
TTITLE4=Just Can't Stay
TTITLE5=Blues King Mango
TTITLE6=Keep On Running
TTITLE7=Grand Casino
TTITLE8=Going Down the Line
TTITLE9=They Try To Kill Me
TTITLE10=Just Don't Care
TTITLE11=Homesick Blues
TTITLE12=Bloody Tears
EXTD=
EXTT0=
EXTT1=
EXTT2=
EXTT3=
EXTT4=
EXTT5=
EXTT6=
EXTT7=
EXTT8=
EXTT9=
EXTT10=
EXTT11=
EXTT12=
PLAYORDER=
